<?xml version="1.0" standalone="no"?>
<!DOCTYPE svg PUBLIC "-//W3C//DTD SVG 20010904//EN"
 "http://www.w3.org/TR/2001/REC-SVG-20010904/DTD/svg10.dtd">
<svg version="1.0" xmlns="http://www.w3.org/2000/svg"
 width="548.000000pt" height="354.000000pt" viewBox="0 0 548.000000 354.000000"
 preserveAspectRatio="xMidYMid meet">

<g transform="translate(0.000000,354.000000) scale(0.100000,-0.100000)"
fill="#000000" stroke="none">
<path d="M1665 3442 c-37 -23 -48 -36 -83 -101 l-28 -51 -30 41 c-49 68 -54
72 -95 66 -48 -6 -89 -36 -135 -95 l-35 -47 -217 -46 c-254 -55 -272 -61 -272
-101 0 -35 63 -108 93 -108 18 0 16 4 -14 24 -19 13 -43 40 -54 60 -29 54 -32
53 277 118 l198 42 43 56 c41 52 95 90 129 90 8 0 23 -9 33 -20 18 -19 17 -20
-7 -20 -40 0 -88 -20 -88 -37 0 -12 3 -13 14 -4 7 6 33 14 58 17 40 6 47 4 66
-21 35 -44 30 -100 -14 -155 -105 -132 -238 -136 -219 -6 9 56 5 56 -91 20
-37 -14 -106 -34 -153 -46 -48 -11 -91 -24 -97 -29 -6 -5 -14 -6 -17 -2 -4 3
-7 1 -7 -5 0 -8 13 -10 40 -7 31 4 53 -1 101 -26 34 -17 85 -33 113 -36 45 -5
56 -2 83 21 27 22 32 24 43 11 7 -8 18 -15 25 -15 7 0 15 -17 18 -37 9 -56 30
-78 109 -120 61 -32 74 -43 91 -81 16 -38 18 -57 12 -127 -8 -95 11 -349 29
-381 6 -12 22 -41 35 -65 21 -38 25 -62 31 -184 4 -77 12 -150 18 -162 7 -12
12 -28 12 -35 -1 -27 -19 18 -45 112 -14 52 -54 154 -89 225 -77 157 -90 212
-90 377 0 142 1 142 -60 54 -51 -74 -86 -161 -86 -216 0 -59 6 -66 62 -74 28
-4 60 -17 77 -32 42 -35 134 -222 166 -334 52 -184 88 -241 191 -306 85 -53
289 -259 351 -354 35 -55 40 -58 86 -64 70 -10 142 -39 214 -88 35 -24 63 -45
63 -48 0 -3 -33 -3 -72 1 -112 11 -215 52 -330 130 -32 22 -58 36 -58 32 1
-36 165 -127 299 -167 60 -18 206 -22 216 -6 3 6 0 10 -7 10 -7 0 -47 23 -88
50 -81 55 -158 87 -227 97 -40 5 -48 11 -81 61 -20 30 -45 67 -55 81 -9 14
-27 55 -39 91 -19 56 -22 95 -27 295 l-6 230 30 33 c43 49 85 123 85 153 0 46
-37 174 -72 245 -18 37 -56 93 -84 124 -34 37 -53 67 -57 90 -10 64 -47 147
-85 191 -21 24 -44 58 -51 75 -20 50 -63 85 -112 91 -52 7 -69 18 -69 47 1 32
21 62 60 88 47 32 106 112 126 170 20 62 6 111 -40 139 -39 24 -73 24 -111 1z
m112 -18 c55 -34 28 -145 -57 -238 -56 -61 -103 -71 -138 -31 -40 47 -21 144
45 234 44 57 95 69 150 35z m-507 -308 c0 -48 -4 -57 -27 -76 -22 -17 -37 -21
-66 -17 -41 6 -147 53 -147 66 0 4 24 13 53 20 28 7 79 23 112 36 33 13 63 24
68 24 4 1 7 -23 7 -53z m341 -6 c16 0 19 -4 14 -17 -15 -34 -17 -73 -6 -87 6
-7 31 -16 56 -18 59 -7 93 -31 116 -82 10 -23 28 -51 40 -62 44 -39 99 -161
99 -220 0 -12 24 -46 54 -78 32 -33 68 -85 86 -123 31 -65 70 -197 70 -236 0
-21 -60 -140 -67 -133 -4 4 8 77 26 148 5 21 5 35 0 33 -4 -3 -17 11 -28 33
-17 33 -77 111 -228 295 -124 151 -127 156 -127 208 0 27 -3 49 -7 49 -8 0
-19 -37 -19 -67 0 -12 -15 -48 -34 -80 -19 -32 -42 -77 -52 -101 -9 -24 -19
-40 -23 -37 -3 4 -6 64 -6 133 0 117 -2 130 -23 160 -14 19 -51 47 -93 67 -71
36 -82 48 -94 103 -6 27 -4 32 12 32 29 0 105 52 136 94 l29 37 23 -26 c13
-14 34 -25 46 -25z m331 -695 c37 -44 68 -83 68 -86 0 -12 -106 20 -175 52
-60 29 -83 34 -159 37 l-89 4 6 48 c5 43 54 156 94 217 14 21 17 19 101 -85
47 -59 117 -143 154 -187z m-483 -62 c17 -59 15 -66 -13 -48 -13 9 -43 19 -67
23 -44 7 -44 8 -47 53 -4 54 24 130 71 198 l32 46 7 -117 c4 -64 11 -134 17
-155z m373 15 c42 -20 101 -41 131 -48 59 -12 73 -23 99 -78 17 -38 16 -44
-21 -119 -20 -39 -20 -52 -14 -300 5 -200 10 -272 24 -322 l17 -64 -74 74
c-71 71 -73 73 -52 87 19 14 20 22 15 96 -4 50 -18 117 -37 175 -53 162 -53
202 5 271 20 24 34 44 33 45 -2 1 -63 -4 -137 -12 -74 -8 -140 -12 -146 -9 -7
2 -16 17 -19 33 -4 15 -19 43 -33 61 -16 22 -26 51 -30 86 -5 51 -4 55 18 59
65 14 145 1 221 -35z m57 -248 c-28 -57 -24 -122 16 -251 41 -131 53 -216 36
-247 -16 -30 -30 -28 -93 12 -113 73 -146 112 -146 177 0 20 -6 47 -13 60 -8
14 -15 73 -17 145 l-4 122 93 9 c52 6 106 11 121 12 l26 1 -19 -40z m158 -82
c-2 -13 -4 -5 -4 17 -1 22 1 32 4 23 2 -10 2 -28 0 -40z"/>
<path d="M4035 3250 c-4 -44 -11 -80 -16 -80 -5 0 -9 -34 -9 -75 0 -65 -2 -75
-17 -75 -25 1 -53 24 -53 44 0 10 -8 16 -25 16 -16 0 -25 -6 -25 -15 0 -9 -7
-18 -15 -21 -8 -4 -15 -13 -15 -21 0 -8 -4 -12 -10 -8 -5 3 -7 12 -3 20 4 11
-3 15 -26 15 -21 0 -31 -5 -31 -15 0 -8 -6 -15 -14 -15 -7 0 -16 -8 -19 -19
-3 -13 -23 -22 -77 -35 -42 -9 -97 -31 -131 -51 -218 -133 -554 -214 -890
-215 l-127 0 -6 31 c-14 70 -11 75 53 93 32 9 71 26 86 38 25 20 26 24 20 82
-15 143 -31 158 -163 163 -87 4 -101 2 -124 -16 -14 -11 -28 -33 -31 -48 -3
-16 -11 -46 -18 -69 -18 -59 -7 -86 50 -122 27 -18 54 -32 60 -32 13 0 15 -86
2 -95 -5 -3 -12 4 -16 15 -15 49 -97 78 -125 45 -17 -21 -6 -29 18 -14 34 21
70 -3 95 -61 12 -28 24 -50 28 -50 11 0 29 84 29 134 0 40 -3 46 -21 46 -26 0
-109 67 -109 89 0 27 34 127 49 145 12 14 29 16 107 13 50 -3 97 -8 103 -11
21 -13 38 -61 44 -123 6 -59 5 -64 -18 -79 -13 -9 -50 -24 -82 -33 l-58 -18 1
-55 c2 -91 -3 -88 133 -88 332 0 678 77 888 198 114 65 174 82 289 82 235 0
548 -101 981 -317 l215 -107 89 -4 c52 -3 89 -1 89 5 0 5 -28 9 -62 10 -36 0
-87 9 -118 20 l-55 19 -3 102 -3 102 -39 0 c-37 0 -39 -1 -42 -37 -3 -42 -28
-59 -28 -19 0 16 -6 26 -15 26 -9 0 -15 9 -15 25 0 33 -37 35 -42 3 -5 -37
-23 -22 -26 22 -3 35 -6 40 -28 40 -20 0 -24 5 -24 30 0 25 -4 30 -25 30 -14
0 -25 -4 -25 -10 0 -5 -11 -10 -25 -10 -16 0 -25 6 -25 15 0 10 -10 15 -30 15
-19 0 -30 -5 -30 -14 0 -8 -5 -18 -11 -22 -8 -5 -9 11 -4 55 l7 61 -67 0 c-52
0 -71 -4 -80 -17 -14 -19 -35 -9 -35 18 0 27 -38 25 -50 -3 -9 -23 -9 -23 -9
-2 -1 12 -8 24 -16 28 -8 3 -15 12 -15 20 0 17 -31 26 -97 26 l-53 0 0 44 c0
25 -5 46 -12 48 -7 3 -10 31 -9 86 2 76 1 82 -17 82 -18 0 -21 -10 -27 -80z
m36 -110 c5 0 9 -20 9 -45 l0 -45 71 0 c62 0 71 -2 76 -20 3 -11 12 -20 19
-20 8 0 14 -10 14 -25 0 -26 2 -26 65 -29 25 -1 31 -6 33 -28 2 -20 9 -28 23
-28 16 0 19 7 19 40 l0 40 51 0 52 0 -7 -60 c-7 -59 -6 -60 17 -60 16 0 26 7
30 20 6 23 27 27 27 5 0 -19 86 -21 93 -2 3 6 6 -3 6 -20 1 -28 5 -33 26 -33
22 0 25 -4 25 -39 l0 -39 50 -7 c44 -6 50 -10 50 -31 0 -20 5 -24 29 -24 30 0
41 14 41 56 0 17 6 24 20 24 18 0 20 -7 20 -78 0 -43 -2 -81 -5 -83 -2 -3 -87
36 -188 87 -352 175 -636 267 -864 281 -51 3 -93 10 -93 14 0 5 7 9 15 9 8 0
15 7 15 16 0 8 4 13 10 9 5 -3 7 -12 3 -20 -4 -11 3 -15 26 -15 21 0 31 5 31
15 0 8 4 15 9 15 5 0 12 10 16 23 7 20 7 21 12 3 9 -33 30 -46 72 -46 l41 0 0
76 c0 65 2 75 16 70 9 -3 20 -6 25 -6z"/>
<path d="M797 2973 c-24 -6 -11 -23 18 -23 64 0 121 -99 113 -195 -5 -57 6
-71 32 -40 22 27 19 164 -4 202 -29 47 -99 72 -159 56z"/>
<path d="M979 2942 c19 -15 53 -44 75 -64 l41 -36 -27 -22 c-39 -30 -51 -82
-32 -134 9 -22 15 -54 15 -71 l-1 -30 13 25 c12 22 12 29 -5 56 -27 47 -24
100 10 133 15 15 34 30 42 33 20 7 -36 67 -101 109 -57 36 -76 37 -30 1z"/>
<path d="M696 2905 c-14 -13 -26 -32 -26 -42 0 -32 19 -85 42 -119 38 -55 138
-83 172 -48 22 22 21 119 -2 164 -33 67 -135 92 -186 45z"/>
<path d="M617 2849 c-36 -21 -8 -128 46 -178 31 -28 103 -38 157 -23 l35 10
-41 1 c-73 2 -148 72 -160 153 -8 44 -13 50 -37 37z"/>
<path d="M530 2797 c-64 -32 -124 -156 -143 -294 l-11 -83 30 -31 c16 -16 58
-44 94 -62 58 -29 74 -32 150 -32 115 1 207 32 270 91 42 40 45 46 44 93 0 37
-8 62 -30 98 -26 42 -34 48 -60 45 -16 -2 -66 -4 -111 -5 -68 -2 -86 1 -110
19 -32 23 -83 116 -83 151 0 26 -5 28 -40 10z"/>
<path d="M940 2679 c-35 -14 -35 -14 -7 -51 42 -56 57 -95 57 -147 0 -38 3
-49 14 -45 38 15 47 106 16 168 -34 70 -51 85 -80 75z"/>
<path d="M1067 2460 c3 -11 10 -23 16 -27 7 -4 8 0 4 11 -4 10 -7 22 -7 27 0
5 -4 9 -9 9 -5 0 -7 -9 -4 -20z"/>
<path d="M310 2401 c0 -32 6 -44 33 -67 76 -65 198 -96 303 -78 l49 8 -76 7
c-102 9 -175 43 -242 114 -29 30 -56 55 -60 55 -4 0 -7 -18 -7 -39z"/>
<path d="M1017 2412 c-15 -16 -13 -19 28 -46 90 -57 145 -152 145 -253 0 -62
12 -85 33 -64 20 20 21 147 2 198 -22 56 -81 123 -140 158 -52 30 -48 29 -68
7z"/>
<path d="M236 2344 c-26 -55 -46 -166 -46 -254 0 -203 75 -334 214 -375 164
-49 467 24 622 149 146 118 179 255 94 390 -30 46 -113 115 -140 116 -8 0 -35
-14 -60 -31 -131 -88 -241 -123 -371 -117 -107 5 -178 37 -243 109 -24 27 -46
49 -48 49 -2 0 -12 -16 -22 -36z"/>
<path d="M3040 2159 c-103 -20 -193 -88 -236 -178 -26 -53 -30 -161 -9 -219
24 -64 73 -122 141 -167 l56 -37 -64 -43 c-129 -86 -192 -188 -192 -310 0
-164 116 -281 304 -304 198 -25 376 58 443 207 32 72 31 210 -3 276 -29 58
-83 107 -174 160 l-67 39 51 44 c105 92 151 202 132 313 -20 112 -84 177 -209
211 -73 20 -103 22 -173 8z m225 -43 c95 -44 153 -140 142 -240 -9 -88 -41
-148 -118 -221 l-69 -65 -71 36 c-146 73 -236 155 -259 235 -31 108 29 226
134 263 67 24 182 20 241 -8z m-124 -637 c190 -97 268 -182 269 -293 0 -70
-18 -121 -62 -171 -107 -122 -317 -139 -465 -39 -89 61 -129 143 -121 253 5
73 23 114 75 179 32 39 156 132 176 132 5 0 62 -27 128 -61z"/>
<path d="M3960 2160 c-184 -39 -292 -197 -254 -375 15 -70 73 -143 155 -196
l50 -32 -53 -34 c-78 -51 -142 -118 -174 -182 -57 -114 -31 -266 58 -347 110
-99 306 -126 469 -65 142 53 230 196 216 348 -11 115 -71 192 -212 273 -50 28
-70 50 -46 50 24 0 113 97 142 155 60 123 35 269 -59 341 -74 56 -197 83 -292
64z m225 -44 c132 -61 179 -211 110 -351 -27 -56 -133 -165 -160 -165 -27 0
-165 76 -226 124 -135 106 -146 272 -25 367 69 55 213 67 301 25z m-121 -638
c236 -121 314 -250 242 -403 -62 -134 -236 -197 -404 -146 -140 42 -213 131
-220 268 -4 60 0 80 21 126 13 30 41 73 62 96 35 39 150 121 169 121 4 0 63
-28 130 -62z"/>
<path d="M4863 2146 c-157 -51 -261 -179 -321 -394 -24 -89 -27 -112 -27 -277
0 -145 4 -193 18 -245 70 -245 228 -359 459 -330 192 24 332 164 359 361 25
180 -49 337 -190 403 -39 18 -65 21 -161 21 -100 0 -121 -3 -161 -23 -65 -32
-136 -104 -165 -165 l-24 -52 0 67 c0 143 39 330 92 438 62 128 155 190 282
190 145 -1 240 -92 241 -232 0 -54 -4 -72 -23 -98 -28 -37 -19 -56 8 -20 25
32 33 77 28 150 -6 83 -46 146 -118 185 -49 26 -66 30 -155 32 -65 2 -115 -2
-142 -11z m239 -532 c30 -21 53 -50 77 -97 31 -60 35 -77 39 -169 7 -171 -35
-298 -123 -376 -68 -60 -159 -77 -246 -47 -124 44 -197 203 -187 407 4 76 9
103 31 145 38 73 79 117 140 148 47 24 61 26 139 23 78 -4 93 -8 130 -34z"/>
<path d="M1251 2048 c-7 -19 0 -27 48 -63 111 -82 212 -224 228 -320 4 -27 14
-40 36 -51 l30 -16 -7 59 c-9 69 -52 168 -106 240 -40 52 -128 126 -188 157
-32 16 -33 16 -41 -6z"/>
<path d="M1172 1988 l-12 -33 20 25 c21 27 25 40 12 40 -4 0 -13 -15 -20 -32z"/>
<path d="M1176 1944 c-57 -63 -188 -155 -301 -212 -220 -110 -472 -140 -605
-72 -22 11 -42 20 -45 20 -3 0 -5 -29 -5 -65 0 -210 210 -455 514 -601 105
-51 158 -60 236 -40 200 50 409 215 497 393 81 164 49 356 -84 502 -46 52
-143 133 -154 130 -2 -1 -26 -25 -53 -55z"/>
<path d="M245 1750 c-24 -26 -9 -43 58 -68 66 -25 156 -34 227 -24 l55 8 -75
7 c-99 9 -164 29 -210 66 -37 30 -38 30 -55 11z"/>
<path d="M598 1673 c7 -3 16 -2 19 1 4 3 -2 6 -13 5 -11 0 -14 -3 -6 -6z"/>
<path d="M1618 1608 c3 -18 11 -37 19 -41 31 -18 94 -112 108 -161 12 -39 22
-56 42 -65 l26 -12 -6 54 c-9 93 -61 172 -154 235 -17 12 -33 22 -35 22 -3 0
-2 -15 0 -32z"/>
<path d="M1540 1524 c0 -58 -27 -156 -59 -209 -3 -6 4 1 16 15 31 35 71 122
84 182 10 44 9 51 -8 63 -30 23 -33 18 -33 -51z"/>
<path d="M1605 1499 c-4 -22 -23 -73 -43 -112 -72 -144 -296 -332 -523 -438
-83 -38 -83 -38 -54 -49 65 -25 134 -32 264 -28 110 4 147 9 194 27 208 81
345 352 263 526 -24 51 -71 115 -86 115 -5 0 -11 -18 -15 -41z"/>
<path d="M1830 1410 c0 -5 14 -17 31 -26 18 -9 42 -27 55 -41 13 -14 28 -23
34 -21 6 2 -18 25 -54 51 -36 26 -66 43 -66 37z"/>
<path d="M1840 1338 c0 -45 11 -58 54 -68 27 -6 36 -5 36 5 0 17 -46 72 -71
86 -17 9 -19 6 -19 -23z"/>
<path d="M1762 1278 c-3 -52 -27 -131 -54 -175 -32 -53 -13 -38 25 20 20 29
44 80 55 112 19 55 19 60 4 72 -26 19 -28 16 -30 -29z"/>
<path d="M1957 1273 c3 -10 14 -37 25 -59 19 -42 17 -79 -8 -138 -13 -34 14
-8 41 39 15 25 27 61 28 85 1 35 -4 46 -26 66 -34 29 -69 33 -60 7z"/>
<path d="M1820 1246 c0 -7 -16 -45 -35 -83 -36 -73 -102 -149 -174 -201 l-42
-31 40 -11 c66 -18 113 1 162 63 71 89 103 189 79 247 -13 31 -30 40 -30 16z"/>
<path d="M1885 1177 c0 -47 -6 -75 -26 -115 -14 -28 -24 -52 -22 -52 13 0 83
129 92 168 10 48 4 62 -29 62 -12 0 -15 -14 -15 -63z"/>
<path d="M1956 1175 c-24 -63 -54 -123 -74 -147 -36 -43 -9 -33 31 11 38 42
61 98 54 133 -3 22 -4 22 -11 3z"/>
<path d="M3974 669 c-126 -37 -82 -238 94 -430 l52 -57 -30 -12 c-17 -7 -29
-15 -26 -17 2 -2 17 2 33 11 28 14 33 13 80 -10 47 -24 53 -24 86 -11 46 20
53 34 14 29 -34 -4 -104 35 -100 56 2 6 -4 9 -11 6 -20 -8 -135 130 -176 210
-36 72 -49 150 -30 185 6 13 26 29 43 36 36 16 19 18 -29 4z"/>
<path d="M4051 667 c2 -1 13 -9 24 -17 19 -14 19 -14 6 3 -7 9 -18 17 -24 17
-6 0 -8 -1 -6 -3z"/>
<path d="M2518 643 c-16 -4 -18 -23 -18 -209 0 -197 1 -204 20 -204 19 0 20 7
20 210 0 116 -1 209 -2 209 -2 -1 -11 -3 -20 -6z"/>
<path d="M90 435 c0 -198 1 -205 20 -205 19 0 20 7 20 118 1 64 2 156 3 205 2
84 1 87 -20 87 l-23 0 0 -205z"/>
<path d="M212 633 c24 -6 48 -42 48 -73 0 -36 -26 -68 -63 -79 -26 -7 -27 -9
-9 -10 26 -1 73 21 91 43 19 23 17 75 -5 96 -10 11 -33 21 -49 23 -17 3 -22 2
-13 0z"/>
<path d="M1942 623 c-17 -7 -42 -57 -42 -86 0 -43 36 -74 111 -99 39 -12 82
-33 95 -45 33 -31 32 -81 -3 -125 -23 -27 -23 -30 -4 -13 62 54 68 148 12 192
-9 7 -46 22 -82 33 -100 30 -133 78 -87 127 22 24 22 25 0 16z"/>
<path d="M2105 610 c10 -11 20 -20 23 -20 3 0 -3 9 -13 20 -10 11 -20 20 -23
20 -3 0 3 -9 13 -20z"/>
<path d="M4092 610 c0 -14 2 -19 5 -12 2 6 2 18 0 25 -3 6 -5 1 -5 -13z"/>
<path d="M4580 405 l0 -205 23 0 c22 0 22 1 20 127 -1 71 -3 163 -3 206 0 70
-2 77 -20 77 -19 0 -20 -7 -20 -205z"/>
<path d="M4725 585 c41 -40 27 -105 -27 -129 -21 -9 -26 -15 -15 -15 20 -1 65
25 85 48 6 8 12 32 12 53 0 31 -5 40 -30 53 -43 22 -53 18 -25 -10z"/>
<path d="M1337 558 c-4 -15 -17 -30 -28 -33 -12 -4 -17 -10 -11 -14 6 -3 12
-57 14 -124 3 -111 5 -120 27 -138 29 -23 48 -25 30 -2 -10 11 -15 61 -19 177
-3 98 -8 150 -13 134z"/>
<path d="M4056 532 c-22 -27 -24 -32 -7 -17 20 17 47 55 39 55 -2 0 -16 -17
-32 -38z"/>
<path d="M469 499 c-48 -28 -70 -68 -71 -128 0 -85 39 -134 117 -146 l40 -6
-30 14 c-55 26 -78 61 -83 127 l-4 60 106 0 c98 0 106 1 106 19 0 11 -3 27 -6
36 -7 17 -54 45 -76 45 -7 0 -2 -6 12 -13 18 -9 25 -21 25 -42 l0 -30 -77 -3
c-52 -2 -78 1 -78 8 0 24 23 52 53 65 18 8 25 14 17 14 -8 0 -31 -9 -51 -20z"/>
<path d="M791 513 c60 -9 90 -94 69 -189 -5 -19 -4 -32 1 -28 5 3 9 -3 9 -14
0 -21 29 -52 49 -52 8 0 9 5 3 18 -5 9 -12 61 -14 115 -5 89 -8 101 -30 124
-18 18 -38 26 -69 28 -24 1 -32 1 -18 -2z"/>
<path d="M993 513 c-9 -3 -13 -35 -13 -108 0 -143 9 -162 85 -179 l30 -6 -27
15 c-42 24 -48 45 -48 169 0 64 -3 116 -7 115 -5 0 -14 -3 -20 -6z"/>
<path d="M1203 513 c-9 -3 -13 -34 -13 -104 0 -55 -5 -110 -11 -121 -8 -15 -8
-19 0 -14 7 5 11 -2 11 -18 0 -19 5 -26 20 -26 19 0 20 7 20 145 0 80 -3 145
-7 144 -5 0 -14 -3 -20 -6z"/>
<path d="M1506 373 c35 -80 64 -149 64 -152 1 -3 7 6 15 20 13 24 10 34 -43
153 -48 107 -60 126 -79 126 -21 0 -19 -8 43 -147z"/>
<path d="M2311 513 c15 -2 36 -15 49 -27 19 -22 21 -33 18 -110 -2 -47 0 -86
5 -86 4 0 7 -6 7 -13 0 -17 32 -47 50 -47 10 0 10 3 1 14 -7 8 -15 62 -18 120
-7 124 -21 147 -95 151 -24 1 -31 1 -17 -2z"/>
<path d="M2802 505 c77 -44 81 -207 6 -259 -30 -21 -4 -20 32 0 105 63 79 238
-40 268 -24 7 -24 6 2 -9z"/>
<path d="M2983 513 c-10 -3 -13 -42 -13 -144 0 -131 1 -139 19 -139 18 0 20 9
23 113 3 124 0 177 -10 176 -4 0 -13 -3 -19 -6z"/>
<path d="M3108 513 c52 -7 65 -37 70 -169 4 -103 6 -114 23 -114 17 0 19 9 19
88 -1 158 -24 203 -104 200 -37 -1 -38 -2 -8 -5z"/>
<path d="M714 488 l-19 -23 23 19 c21 18 27 26 19 26 -2 0 -12 -10 -23 -22z"/>
<path d="M2234 488 l-19 -23 23 19 c12 11 22 21 22 23 0 8 -8 2 -26 -19z"/>
<path d="M2666 489 c-77 -60 -74 -190 6 -239 46 -28 56 -25 24 6 -53 54 -58
166 -10 224 30 35 19 40 -20 9z"/>
<path d="M3034 488 l-19 -23 25 20 c14 11 27 21 29 22 2 2 0 3 -6 3 -5 0 -18
-10 -29 -22z"/>
<path d="M3999 483 c-13 -16 -12 -17 4 -4 16 13 21 21 13 21 -2 0 -10 -8 -17
-17z"/>
<path d="M4968 483 c7 -3 16 -2 19 1 4 3 -2 6 -13 5 -11 0 -14 -3 -6 -6z"/>
<path d="M5051 460 c29 -29 30 -33 28 -112 -3 -87 7 -120 41 -138 28 -15 30
-13 14 18 -9 17 -14 58 -14 115 0 84 -1 90 -29 118 -16 16 -38 29 -49 29 -18
0 -17 -3 9 -30z"/>
<path d="M5207 483 c-4 -3 -7 -69 -7 -145 0 -131 1 -138 20 -138 19 0 20 7 20
94 0 52 4 106 10 121 7 17 7 24 0 20 -6 -4 -10 7 -10 24 0 29 -17 41 -33 24z"/>
<path d="M4929 463 c-13 -16 -12 -17 4 -4 9 7 17 15 17 17 0 8 -8 3 -21 -13z"/>
<path d="M5269 463 c-13 -16 -12 -17 4 -4 9 7 17 15 17 17 0 8 -8 3 -21 -13z"/>
<path d="M260 452 c81 -40 69 -178 -20 -216 -8 -3 -2 -4 14 -1 58 12 106 66
106 121 0 34 -32 81 -66 97 -46 23 -79 22 -34 -1z"/>
<path d="M692 430 c0 -14 2 -19 5 -12 2 6 2 18 0 25 -3 6 -5 1 -5 -13z"/>
<path d="M4072 444 c7 -7 249 -6 256 1 3 3 -55 5 -128 5 -73 0 -131 -3 -128
-6z"/>
<path d="M4746 430 c36 -14 54 -50 54 -108 0 -46 -4 -58 -29 -83 -32 -32 -20
-39 19 -12 35 24 48 43 55 80 12 63 -43 134 -102 132 -15 0 -14 -2 3 -9z"/>
<path d="M3872 394 c-51 -43 -72 -81 -72 -128 0 -45 17 -82 47 -101 33 -22
111 -34 163 -25 l45 7 -53 2 c-84 2 -131 34 -150 104 -14 48 0 97 40 142 38
44 34 44 -20 -1z"/>
<path d="M4175 410 c10 -11 20 -20 23 -20 3 0 -3 9 -13 20 -10 11 -20 20 -23
20 -3 0 3 -9 13 -20z"/>
<path d="M4201 364 c0 -11 3 -14 6 -6 3 7 2 16 -1 19 -3 4 -6 -2 -5 -13z"/>
<path d="M740 359 c-13 -6 -33 -17 -42 -26 -21 -19 -24 -76 -5 -90 19 -16 59
-21 87 -13 24 8 24 8 -5 9 -38 1 -55 17 -55 51 0 29 15 52 45 68 25 14 9 14
-25 1z"/>
<path d="M2260 359 c-13 -6 -33 -17 -42 -26 -21 -19 -24 -76 -5 -90 19 -16 59
-21 87 -13 24 8 24 8 -5 9 -38 1 -55 17 -55 51 0 29 15 52 45 68 25 14 9 14
-25 1z"/>
<path d="M4933 320 c-40 -24 -51 -61 -29 -95 14 -21 24 -25 64 -24 30 1 37 4
19 6 -59 9 -69 80 -15 117 33 23 0 20 -39 -4z"/>
<path d="M824 258 l-19 -23 23 19 c21 18 27 26 19 26 -2 0 -12 -10 -23 -22z"/>
<path d="M2344 258 l-19 -23 23 19 c21 18 27 26 19 26 -2 0 -12 -10 -23 -22z"/>
<path d="M590 240 c-9 -6 -10 -10 -3 -10 6 0 15 5 18 10 8 12 4 12 -15 0z"/>
<path d="M5025 220 c-3 -6 1 -7 9 -4 18 7 21 14 7 14 -6 0 -13 -4 -16 -10z"/>
<path d="M4708 203 c7 -3 16 -2 19 1 4 3 -2 6 -13 5 -11 0 -14 -3 -6 -6z"/>
</g>
</svg>
